<?xml version="1.0" standalone="no"?>
<!DOCTYPE svg PUBLIC "-//W3C//DTD SVG 20010904//EN"
 "http://www.w3.org/TR/2001/REC-SVG-20010904/DTD/svg10.dtd">
<svg version="1.0" xmlns="http://www.w3.org/2000/svg"
 width="64.000000pt" height="64.000000pt" viewBox="0 0 64.000000 64.000000"
 preserveAspectRatio="xMidYMid meet">

<g transform="translate(0.000000,64.000000) scale(0.100000,-0.100000)"
fill="#000000" stroke="none">
<path d="M110 481 c0 -5 9 -11 20 -14 18 -5 20 -13 20 -114 0 -139 -8 -184
-32 -191 -38 -10 -16 -22 42 -22 33 0 60 4 60 10 0 6 -9 10 -20 10 -26 0 -32
37 -28 180 l3 115 59 -153 c32 -83 62 -152 66 -152 4 0 35 69 68 153 l61 152
0 -147 c1 -142 0 -148 -19 -148 -11 0 -20 -4 -20 -10 0 -6 30 -10 70 -10 40 0
70 4 70 10 0 6 -9 10 -20 10 -19 0 -20 7 -20 155 0 148 1 155 20 155 11 0 20
5 20 10 0 6 -26 10 -59 10 l-58 0 -28 -77 c-16 -43 -37 -98 -48 -123 l-19 -45
-29 80 c-16 44 -36 99 -45 123 l-16 42 -59 0 c-32 0 -59 -4 -59 -9z"/>
</g>
</svg>
